<?xml version="1.0" standalone="no"?>
<!DOCTYPE svg PUBLIC "-//W3C//DTD SVG 20010904//EN"
 "http://www.w3.org/TR/2001/REC-SVG-20010904/DTD/svg10.dtd">
<svg version="1.0" xmlns="http://www.w3.org/2000/svg"
 width="813.000000pt" height="813.000000pt" viewBox="0 0 813.000000 813.000000"
 preserveAspectRatio="xMidYMid meet">

<g transform="translate(0.000000,813.000000) scale(0.100000,-0.100000)"
fill="#000000" stroke="none">
<path d="M3960 5981 c0 -40 0 -40 -42 -43 l-43 -3 -5 -105 -5 -105 -37 -3 -38
-3 0 45 0 46 -119 0 c-65 0 -133 3 -150 6 l-31 7 0 -46 0 -46 -42 -3 -43 -3
-3 -142 -3 -143 46 0 45 0 0 -114 c0 -125 0 -126 -66 -126 l-34 0 0 -120 0
-120 -46 0 c-37 0 -45 -3 -43 -17 1 -10 1 -59 0 -109 l-1 -90 -82 2 c-153 3
-138 -2 -138 49 l0 45 -215 0 -215 0 -2 -70 c-1 -38 -2 -82 -2 -97 -1 -24 3
-29 34 -33 33 -5 35 -7 38 -47 3 -35 7 -44 26 -49 12 -3 29 -4 37 -2 10 2 14
-8 15 -37 0 -37 2 -40 31 -43 26 -3 33 -9 38 -33 5 -20 13 -29 26 -29 10 0 19
-4 19 -10 0 -5 16 -10 35 -10 33 0 35 -2 35 -34 0 -36 -15 -46 -72 -46 -25 0
-28 -4 -28 -35 l0 -35 -65 0 -65 0 0 -40 0 -40 -50 0 -50 0 0 -45 c0 -42 -2
-45 -27 -46 -16 -1 -36 -1 -45 0 -13 2 -18 -7 -20 -36 -3 -37 -4 -38 -46 -41
l-43 -3 3 -37 c3 -36 2 -37 -34 -40 -38 -3 -38 -4 -38 -47 l0 -44 -42 -3 c-32
-2 -42 -7 -40 -18 2 -8 1 -39 -3 -67 l-6 -53 -40 0 -39 0 0 -100 0 -100 -32
-1 c-18 -1 -39 -1 -45 0 -10 2 -13 -43 -13 -193 l0 -195 43 -3 42 -3 3 -172 2
-173 -45 0 -45 0 0 -50 0 -50 -40 0 -40 0 0 -240 0 -240 40 0 40 0 0 -84 0
-85 43 -3 42 -3 3 -48 3 -47 217 0 217 0 -3 90 -3 90 -39 0 c-47 0 -50 6 -50
126 l0 94 85 0 85 0 0 40 0 39 113 3 112 3 3 38 c3 32 7 37 27 37 23 0 24 -3
27 -72 l3 -73 45 -5 45 -5 3 -53 3 -52 50 0 49 0 0 -55 0 -55 40 0 40 0 0 -45
0 -45 225 0 225 0 0 40 0 40 45 0 45 0 0 95 0 95 -45 -7 -45 -6 0 46 c0 67 -6
77 -51 77 l-39 0 0 55 0 55 90 0 90 0 0 40 0 40 40 0 40 0 0 -75 0 -75 45 0
44 0 3 -57 3 -58 42 -3 42 -3 3 -52 3 -52 43 -3 42 -3 0 -55 0 -54 45 0 45 0
0 -45 0 -45 225 0 225 0 0 45 0 45 45 0 45 0 -2 90 -3 90 -35 1 c-19 1 -38 1
-42 0 -5 0 -8 19 -8 44 l0 45 -39 0 c-47 0 -51 9 -51 128 l0 82 -40 0 -40 0 0
135 0 135 39 0 c36 0 40 3 43 28 2 21 9 28 32 30 16 2 33 -1 39 -7 7 -7 55
-11 119 -11 120 0 109 7 112 -70 l1 -25 185 0 185 0 3 43 3 44 42 -4 42 -3 0
140 0 140 -45 5 c-44 5 -45 6 -48 43 -3 33 -6 37 -30 37 -61 0 -72 9 -72 56
l0 44 -80 0 -80 0 0 64 0 65 -47 3 c-27 2 -47 6 -45 11 1 4 2 59 2 122 l0 115
45 0 45 0 0 185 0 185 44 0 45 0 3 43 3 42 98 3 97 3 0 39 0 40 49 0 c76 0 81
4 81 67 0 34 4 52 10 48 6 -4 23 -4 39 0 20 4 28 12 28 28 1 56 1 57 43 57
l40 0 0 80 0 80 35 0 35 0 0 265 0 265 -35 0 -35 0 0 84 0 85 -37 3 c-37 3
-38 4 -38 43 0 39 -1 40 -40 45 -37 5 -40 7 -43 40 -4 39 -15 50 -54 50 -26 0
-28 3 -28 40 l0 40 -51 0 -50 0 7 45 6 45 -93 0 c-52 0 -101 5 -109 10 -16 10
-17 13 -19 55 -1 25 -1 25 -101 25 l-100 0 0 40 0 39 -97 3 c-90 3 -98 5 -99
23 -2 59 14 55 -204 55 l-200 0 0 30 c0 28 -3 30 -35 30 -34 0 -35 1 -35 40
l0 40 -125 0 -125 0 0 -39z m712 -226 l-4 -35 106 0 106 0 0 -45 0 -45 100 0
100 0 0 -45 0 -45 104 0 105 0 3 -47 3 -48 45 0 45 0 3 -42 c3 -43 3 -43 43
-43 l39 0 0 -60 c0 -57 1 -60 25 -60 14 0 25 -6 26 -12 0 -7 4 -4 9 7 5 13 9
-23 9 -99 l1 -118 40 4 40 4 0 -218 0 -218 -40 0 -39 0 -3 -82 -3 -82 -30 -1
c-112 -4 -105 -1 -105 -48 0 -42 -1 -43 -37 -45 -20 -2 -40 -5 -45 -8 -4 -3
-28 -7 -53 -9 -24 -2 -54 -7 -66 -10 -21 -7 -20 -8 9 -21 18 -7 32 -18 32 -24
0 -5 17 -11 38 -12 20 -1 -6 -5 -58 -8 -118 -10 -1286 -12 -1357 -4 l-53 7 0
38 c0 30 -4 39 -17 40 -10 0 -45 1 -78 2 l-60 2 -9 48 c-9 45 -11 47 -43 47
-33 0 -33 1 -33 45 0 45 0 45 -35 45 -28 0 -35 4 -35 19 0 11 -7 26 -15 35 -8
8 -15 26 -15 39 0 27 -16 37 -57 37 -23 0 -25 3 -19 31 3 17 7 68 7 113 1 58
3 73 9 51 l8 -30 1 30 2 30 17 -27 c9 -16 20 -28 23 -28 19 0 29 78 29 226 l0
162 50 -1 50 -2 0 63 0 62 50 0 50 0 0 45 0 45 71 0 70 0 -3 48 -3 47 -51 3
-52 3 -6 49 c-4 27 -11 52 -16 55 -5 3 -23 -1 -39 -10 -34 -17 -58 -12 -66 15
-5 14 -13 18 -38 14 -45 -7 -57 4 -48 46 l7 35 131 3 132 3 3 -43 c3 -41 5
-43 37 -46 l34 -3 -7 -45 -6 -44 39 0 c45 0 50 10 52 105 1 33 4 49 6 35 8
-45 23 -46 23 -2 l0 42 45 0 c45 0 45 0 45 35 l0 35 313 0 313 0 -4 -35z
m-1602 -1027 c0 -19 -2 -20 -10 -8 -8 12 -10 11 -10 -7 0 -12 7 -29 16 -37 19
-20 10 -36 -20 -36 -33 0 -46 -19 -46 -68 0 -36 2 -42 14 -33 7 6 33 12 57 13
44 1 61 10 72 38 3 8 6 -14 6 -50 0 -36 -3 -60 -7 -53 -5 8 -19 9 -42 4 -19
-4 -53 -7 -75 -6 -111 3 -130 6 -116 14 9 6 10 11 2 15 -6 4 -11 12 -11 17 0
6 4 7 10 4 6 -3 7 1 4 9 -3 9 -10 16 -15 16 -5 0 -9 10 -9 23 0 24 -14 51 -27
53 -122 13 -133 16 -133 40 0 18 6 24 21 24 17 0 19 3 10 13 -9 12 14 14 134
13 79 -1 140 3 136 7 -4 4 -74 7 -155 5 -80 -2 -146 0 -146 5 0 4 77 7 170 7
170 0 170 0 170 -22z m275 -58 c-22 -4 -35 -8 -28 -9 6 0 15 -21 19 -46 5 -34
11 -45 24 -45 10 0 21 8 23 18 3 9 5 -17 6 -59 1 -80 -4 -96 -25 -78 -8 6 -32
9 -54 7 l-40 -4 0 61 c0 33 3 84 6 113 l7 52 51 -1 51 -2 -40 -7z m-215 -16
c0 -2 -7 -4 -15 -4 -8 0 -15 4 -15 10 0 5 7 7 15 4 8 -4 15 -8 15 -10z m-92
-231 c-10 -2 -28 -2 -40 0 -13 2 -5 4 17 4 22 1 32 -1 23 -4z m390 -11 c-9 -2
-19 -11 -21 -20 -4 -13 -5 -11 -6 5 -1 22 16 35 34 24 6 -3 2 -7 -7 -9z m42
-22 c0 -27 3 -30 30 -30 20 0 30 -5 30 -15 0 -8 9 -24 19 -34 15 -15 26 -18
54 -12 34 8 34 8 33 -28 -1 -35 0 -36 44 -41 l45 -5 0 -45 0 -44 45 -4 c55 -5
66 -13 74 -57 l7 -35 90 0 c58 0 88 -4 84 -10 -9 -14 36 -29 78 -27 35 2 42
16 9 18 -11 0 -13 2 -4 6 7 3 21 -2 31 -11 10 -9 30 -17 44 -18 22 -2 27 -7
27 -30 0 -40 29 -56 89 -48 27 3 65 4 85 2 31 -4 36 -8 36 -31 0 -49 7 -52
156 -54 158 -3 226 1 218 14 -3 5 -1 9 5 9 5 0 8 11 5 25 -4 25 -3 25 60 25
l64 0 0 -45 c0 -25 -4 -46 -9 -46 -5 -1 -19 -2 -31 -3 -20 -1 -23 -7 -26 -44
-2 -25 -7 -40 -13 -36 -18 11 -39 -18 -39 -52 0 -32 10 -40 43 -35 4 0 7 -3 7
-8 0 -6 -24 -11 -52 -13 l-53 -3 -1 -47 c0 -26 -7 -54 -14 -63 -10 -12 -10
-15 1 -16 8 -1 -4 -7 -26 -13 -35 -11 -41 -18 -49 -52 -4 -21 -10 -45 -12 -51
-2 -8 -20 -13 -44 -13 -39 0 -40 -1 -40 -34 0 -42 -10 -46 -103 -45 -51 1 -65
3 -47 9 18 6 20 8 7 9 -13 1 -17 8 -15 24 2 18 -2 23 -27 25 -16 2 -34 8 -39
13 -6 5 -24 9 -40 9 -21 0 -27 3 -17 9 9 6 10 11 2 15 -6 4 -11 20 -11 36 0
24 -6 30 -42 43 -34 11 -42 18 -40 34 1 11 -4 26 -13 33 -12 10 -15 10 -15 -1
0 -10 -3 -10 -12 -1 -7 7 -20 12 -30 12 -10 0 -18 5 -18 10 0 6 -9 10 -19 10
-38 0 -51 11 -51 46 0 27 -4 34 -19 34 -37 0 -51 12 -51 41 0 19 -6 32 -17 36
-10 4 -23 14 -30 22 -6 9 -15 17 -20 17 -37 6 -53 19 -55 43 0 16 -4 9 -8 -19
l-7 -45 -1 51 c-2 51 -3 52 -37 58 -31 6 -35 11 -35 36 0 28 -3 30 -35 30 -32
0 -35 2 -35 29 0 19 -8 36 -25 49 -13 11 -22 22 -19 25 3 3 -10 9 -30 13 -25
4 -34 10 -27 18 5 6 6 25 4 42 -5 34 -28 44 -94 44 -27 0 -29 3 -29 40 0 39
-1 40 -35 40 l-35 0 0 -60 c0 -57 1 -60 25 -60 22 0 25 -4 25 -35 0 -34 1 -35
39 -35 45 0 51 -10 51 -76 0 -44 0 -44 35 -44 32 0 35 -2 35 -30 0 -27 3 -30
30 -30 23 0 33 -6 40 -25 6 -15 17 -25 30 -25 16 0 20 -7 20 -35 l0 -35 49 0
50 0 3 -47 c3 -46 4 -48 31 -45 25 3 27 1 27 -35 0 -45 8 -57 35 -60 77 -9 84
-13 87 -57 l3 -41 48 3 47 4 0 -46 0 -46 50 0 50 0 0 -35 c0 -29 4 -36 25 -41
14 -3 22 -10 19 -15 -3 -5 11 -9 30 -9 34 0 35 -1 38 -42 l3 -41 71 2 c111 4
120 -1 123 -60 2 -46 0 -49 -22 -49 -16 0 -26 -7 -30 -20 -3 -11 -6 -132 -6
-270 l-2 -250 51 0 50 0 0 -162 c-1 -128 -4 -167 -15 -182 -9 -12 -15 -42 -15
-78 l0 -58 -60 0 -60 0 0 59 0 59 -76 4 c-57 3 -79 8 -89 21 -14 20 -41 22
-48 5 -3 -7 -6 19 -6 59 -1 39 -5 75 -11 78 -5 3 -10 20 -10 37 0 29 -2 30
-35 26 -29 -3 -35 -1 -35 14 0 14 -8 18 -37 18 -21 0 -33 4 -27 8 9 5 8 10 -1
19 -11 10 -15 9 -18 -5 -3 -9 -5 8 -6 38 -2 81 -12 130 -27 130 -7 0 -20 7
-28 16 -9 9 -16 11 -16 4 0 -6 -5 -8 -11 -5 -6 4 -9 35 -8 73 l2 67 -42 -3
c-23 -2 -41 0 -39 5 4 15 -14 112 -20 112 -4 -1 -26 -1 -49 0 l-43 1 0 55 0
55 -39 0 c-35 0 -39 -3 -45 -31 -10 -52 -7 -79 11 -97 15 -16 15 -17 0 -20
-10 -2 -17 -15 -19 -35 l-3 -32 -162 -3 -163 -2 0 104 c0 63 -4 107 -11 111
-6 4 -26 4 -45 1 l-34 -7 0 -69 c0 -67 -1 -69 -27 -73 l-28 -4 25 -8 c23 -8
22 -9 -15 -20 l-40 -11 -3 -72 c-2 -55 -6 -72 -17 -72 -8 0 -15 5 -15 10 0 6
-18 10 -39 10 -38 0 -39 -1 -37 -32 1 -33 1 -33 -53 -36 -52 -3 -53 -4 -48
-30 5 -24 2 -28 -20 -30 -33 -3 -33 -3 -38 -41 -3 -28 -1 -31 25 -31 25 0 29
4 33 33 4 31 4 31 5 -5 l2 -38 -230 0 -230 0 -1 -52 c-1 -29 -1 -66 -2 -83 0
-29 0 -29 -4 -3 -4 25 -6 26 -26 15 -42 -23 -53 -67 -17 -67 12 0 20 -7 20
-17 1 -16 2 -16 15 1 14 19 15 18 15 -15 0 -35 -1 -35 -45 -38 -25 -1 -45 2
-45 8 0 5 -9 7 -20 4 -11 -3 -20 0 -20 6 0 5 -7 8 -15 5 -9 -4 -15 -19 -15
-36 l0 -30 -52 6 c-29 3 -60 6 -68 6 -13 0 -13 2 0 9 8 6 18 7 22 5 4 -3 8 0
8 5 0 6 -8 11 -19 11 -11 0 -22 10 -26 23 l-7 22 -8 -25 c-5 -15 -8 54 -8 165
0 148 2 179 10 140 11 -61 17 -68 42 -49 14 10 16 14 5 14 -10 0 -10 3 -2 8 6
4 13 27 15 52 l4 45 42 3 42 3 0 50 0 49 39 0 c38 0 38 0 44 46 8 72 1 86 -42
82 l-36 -3 0 410 0 410 48 3 47 3 0 65 0 64 35 0 c34 0 35 1 35 38 0 37 0 37
42 37 39 0 43 3 46 26 3 22 7 25 28 21 21 -4 24 -1 24 27 0 30 1 31 45 31 44
0 45 0 45 34 0 39 14 47 63 39 l34 -5 7 51 7 51 79 0 80 0 0 51 c0 33 4 48 11
44 19 -12 56 4 63 27 5 14 9 18 13 11 8 -22 33 -14 33 10 0 32 18 47 57 47 29
0 33 3 33 25 0 23 4 25 40 25 l40 0 0 -75 0 -75 55 0 c30 0 58 -1 63 -2 4 -1
8 23 10 53 3 58 21 111 34 103 5 -3 11 2 14 10 10 26 24 18 24 -14z m1477
-552 c-2 -29 -3 -8 -3 47 0 55 1 79 3 53 2 -26 2 -71 0 -100z m-1220 -1005
c-3 -10 -5 -2 -5 17 0 19 2 27 5 18 2 -10 2 -26 0 -35z m-1524 -220 c-7 -2
-19 -2 -25 0 -7 3 -2 5 12 5 14 0 19 -2 13 -5z m2435 -330 l-1 -48 -7 45 c-4
25 -8 37 -8 28 -1 -10 -9 -18 -18 -18 -8 0 -13 4 -9 9 3 6 -3 14 -12 20 -15 8
-11 10 20 11 l37 0 -2 -47z"/>
<path d="M4269 5431 c-1 -3 -1 -9 0 -13 0 -5 -5 -8 -13 -8 -15 0 -26 -21 -26
-51 0 -14 -7 -19 -30 -19 l-30 0 0 -106 c0 -97 2 -106 20 -111 14 -4 20 -14
20 -35 0 -22 4 -29 14 -25 9 4 17 -1 21 -12 3 -11 16 -22 28 -25 37 -10 147
-7 147 4 0 6 7 10 15 10 8 0 15 8 15 18 0 14 2 14 9 3 7 -11 10 -5 13 20 2 26
8 35 26 37 21 3 22 7 22 113 0 100 -2 109 -19 109 -12 0 -21 9 -25 25 -4 14
-12 25 -18 25 -6 0 -21 8 -32 19 -15 13 -42 20 -88 24 -38 2 -69 2 -69 -2z
m121 -176 l0 -45 -40 0 -40 0 0 45 0 45 40 0 40 0 0 -45z"/>
<path d="M5480 5124 c0 -11 5 -14 16 -10 9 3 20 6 25 6 5 0 9 5 9 10 0 6 -11
10 -25 10 -16 0 -25 -6 -25 -16z"/>
<path d="M5238 5122 l-78 -3 0 -49 c0 -48 1 -50 28 -50 30 -1 55 -17 65 -42 4
-11 17 -18 32 -18 14 0 25 -4 25 -9 0 -20 74 -35 88 -18 5 7 7 31 4 55 -4 38
-6 42 -33 42 -26 0 -28 3 -31 47 -2 25 -7 47 -13 48 -5 0 -45 -1 -87 -3z"/>
<path d="M4856 4652 c-8 -14 6 -92 16 -86 5 3 12 -3 15 -15 3 -12 9 -21 14
-21 5 0 9 -8 9 -18 0 -9 9 -23 20 -30 11 -7 20 -19 20 -28 0 -8 5 -12 10 -9 6
3 10 -1 10 -9 0 -31 66 -46 196 -46 115 0 124 1 124 19 0 24 18 38 55 43 17 1
30 9 29 16 -1 6 -2 30 -2 51 -2 34 -5 38 -22 34 -11 -3 -20 -9 -20 -14 0 -5
-9 -9 -20 -9 -13 0 -20 -7 -20 -20 0 -13 -7 -20 -20 -20 -11 0 -20 -4 -20 -10
0 -17 -177 -12 -216 6 -19 9 -34 20 -34 24 0 5 -9 12 -20 15 -11 3 -20 15 -20
26 0 10 -4 19 -10 19 -5 0 -10 9 -10 19 0 11 -9 23 -20 26 -22 7 -28 25 -8 25
6 0 8 3 4 7 -10 11 -54 15 -60 5z"/>
<path d="M2785 4700 c4 -6 11 -8 16 -5 14 9 11 15 -7 15 -8 0 -12 -5 -9 -10z"/>
<path d="M4468 3303 c12 -2 30 -2 40 0 9 3 -1 5 -23 4 -22 0 -30 -2 -17 -4z"/>
<path d="M2161 2330 c-1 -30 2 -36 22 -37 20 -2 20 0 5 10 -9 7 -18 24 -21 37
-3 19 -5 17 -6 -10z"/>
</g>
</svg>
